ModelForces
version=1
nRows=4
nColumns=155
inDegrees=no

This file contains the forces exerted on a model during a simulation.

A force is a generalized force, meaning that it can be either a force (N) or a torque (Nm).

Units are S.I. units (second, meters, Newtons, ...)
Angles are in degrees.

endheader
time	glut_med1_r	glut_med2_r	glut_med3_r	glut_min1_r	glut_min2_r	glut_min3_r	semimem_r	semiten_r	bifemlh_r	bifemsh_r	sar_r	add_long_r	add_brev_r	add_mag1_r	add_mag2_r	add_mag3_r	tfl_r	pect_r	grac_r	glut_max1_r	glut_max2_r	glut_max3_r	iliacus_r	psoas_r	quad_fem_r	gem_r	peri_r	rect_fem_r	vas_med_r	vas_int_r	vas_lat_r	med_gas_r	lat_gas_r	soleus_r	tib_post_r	flex_dig_r	flex_hal_r	tib_ant_r	per_brev_r	per_long_r	per_tert_r	ext_dig_r	ext_hal_r	glut_med1_l	glut_med2_l	glut_med3_l	glut_min1_l	glut_min2_l	glut_min3_l	semimem_l	semiten_l	bifemlh_l	bifemsh_l	sar_l	add_long_l	add_brev_l	add_mag1_l	add_mag2_l	add_mag3_l	tfl_l	pect_l	grac_l	glut_max1_l	glut_max2_l	glut_max3_l	iliacus_l	psoas_l	quad_fem_l	gem_l	peri_l	rect_fem_l	vas_med_l	vas_int_l	vas_lat_l	med_gas_l	lat_gas_l	soleus_l	tib_post_l	flex_dig_l	flex_hal_l	tib_ant_l	per_brev_l	per_long_l	per_tert_l	ext_dig_l	ext_hal_l	ercspn_r	ercspn_l	intobl_r	intobl_l	extobl_r	extobl_l	femur_lat_meniscii_r.femur_lat_r.force.X	femur_lat_meniscii_r.femur_lat_r.force.Y	femur_lat_meniscii_r.femur_lat_r.force.Z	femur_lat_meniscii_r.femur_lat_r.torque.X	femur_lat_meniscii_r.femur_lat_r.torque.Y	femur_lat_meniscii_r.femur_lat_r.torque.Z	femur_lat_meniscii_r.meniscus_lat_r.force.X	femur_lat_meniscii_r.meniscus_lat_r.force.Y	femur_lat_meniscii_r.meniscus_lat_r.force.Z	femur_lat_meniscii_r.meniscus_lat_r.torque.X	femur_lat_meniscii_r.meniscus_lat_r.torque.Y	femur_lat_meniscii_r.meniscus_lat_r.torque.Z	femur_med_meniscii_r.femur_med_r.force.X	femur_med_meniscii_r.femur_med_r.force.Y	femur_med_meniscii_r.femur_med_r.force.Z	femur_med_meniscii_r.femur_med_r.torque.X	femur_med_meniscii_r.femur_med_r.torque.Y	femur_med_meniscii_r.femur_med_r.torque.Z	femur_med_meniscii_r.meniscus_med_r.force.X	femur_med_meniscii_r.meniscus_med_r.force.Y	femur_med_meniscii_r.meniscus_med_r.force.Z	femur_med_meniscii_r.meniscus_med_r.torque.X	femur_med_meniscii_r.meniscus_med_r.torque.Y	femur_med_meniscii_r.meniscus_med_r.torque.Z	femur_med_tibia_r.tibia_upper_r.force.X	femur_med_tibia_r.tibia_upper_r.force.Y	femur_med_tibia_r.tibia_upper_r.force.Z	femur_med_tibia_r.tibia_upper_r.torque.X	femur_med_tibia_r.tibia_upper_r.torque.Y	femur_med_tibia_r.tibia_upper_r.torque.Z	femur_med_tibia_r.femur_med_r.force.X	femur_med_tibia_r.femur_med_r.force.Y	femur_med_tibia_r.femur_med_r.force.Z	femur_med_tibia_r.femur_med_r.torque.X	femur_med_tibia_r.femur_med_r.torque.Y	femur_med_tibia_r.femur_med_r.torque.Z	femur_lat_tibia_r.tibia_upper_r.force.X	femur_lat_tibia_r.tibia_upper_r.force.Y	femur_lat_tibia_r.tibia_upper_r.force.Z	femur_lat_tibia_r.tibia_upper_r.torque.X	femur_lat_tibia_r.tibia_upper_r.torque.Y	femur_lat_tibia_r.tibia_upper_r.torque.Z	femur_lat_tibia_r.femur_lat_r.force.X	femur_lat_tibia_r.femur_lat_r.force.Y	femur_lat_tibia_r.femur_lat_r.force.Z	femur_lat_tibia_r.femur_lat_r.torque.X	femur_lat_tibia_r.femur_lat_r.torque.Y	femur_lat_tibia_r.femur_lat_r.torque.Z	aACL_R	pACL_R	aPCL_R	pPCL_R	aMCL_R	mMCL_R	pMCL_R	aLCL_R	mLCL_R	pLCL_R	aPCL_L	pPCL_L	aMCL_L	aLCL_L
      0.06800945	      0.00000000	     14.20868945	     13.40235178	      6.97130348	      7.91432129	      4.33235803	      0.00000000	    237.90539795	    341.83102127	    441.80248349	    137.43321604	     15.46541692	     10.76310291	      0.00000000	      0.00000000	     11.10545957	      4.29390524	      0.00000000	    120.84335907	      8.08271107	     14.92403675	     11.47950661	     40.83416690	     33.64957826	      0.00000000	      5.72637885	      0.00000000	     48.67594148	      0.00000000	      0.00000000	      0.00000000	     70.05797772	     31.60728003	      8.19889002	     37.41544259	      6.24980812	      5.12744396	      0.00000000	      7.67734623	     28.48772481	      7.68296930	      9.64576001	      2.93130454	      0.00000000	     14.20868945	     13.40235178	      6.97130348	      7.91432129	      4.33235803	      0.00000000	     11.79154103	      0.91355828	     19.32601314	      3.96717793	     15.46541692	     10.76310291	      0.00000000	      0.00000000	     11.10545957	      8.34161493	      0.00000000	      4.13543641	      8.08271107	     14.92403675	     11.47950661	     40.83416690	     33.64957826	      0.00000000	      5.72637885	      0.00000000	     28.03815154	      0.00000000	      0.00000000	      0.00000000	      0.00000000	      0.00000000	     22.26367619	     59.78904731	     10.24608257	      8.47527310	      0.00000000	      9.93072713	     21.76616795	      5.06040635	      6.25064310	      1.82427635	     65.69959033	     65.69959033	     25.37547965	     25.37547965	     41.86038242	     41.86038242	      9.43987011	     33.22812899	      2.18723803	     -1.69426099	      0.23153278	      4.04035548	     -9.43987011	    -33.22812899	     -2.18723803	      0.96474969	     -0.27928538	     -0.16641903	      3.04440937	     14.12511094	      0.34584279	      0.14925431	     -0.05529746	      1.23150888	     -3.04440937	    -14.12511094	     -0.34584279	     -0.23562915	      0.04267852	      0.04422781	      4.19049892	   -713.92887532	    116.00948647	    -16.00201823	      0.22563357	      3.08288245	     -4.19049892	    713.92887532	   -116.00948647	     62.78278924	      0.68551012	      0.83453011	    -80.61860067	   -723.92387057	   -161.64364267	     24.22230855	     -2.50519693	     -0.80554355	     80.61860067	    723.92387057	    161.64364267	    -83.79154935	      0.99139925	     37.29484194	    100.93016424	     95.85335609	      0.00000000	      0.00000000	      0.00000000	    -13.74197811	    -25.12288466	      0.00000000	      0.00000000	      0.00000000	      0.00000000	      0.00000000	      0.00000001	      0.00000000
      0.06918975	      0.00000000	     14.26285159	     13.85581449	      6.90277886	      7.83917270	      4.87227672	      0.00000000	    237.24976549	    340.48822703	    441.48979225	    137.66543083	     15.30710908	     10.65814895	      0.00000000	      0.00000000	     11.04196065	      4.34288043	      0.00000000	    120.79306297	      8.36609247	     14.81567146	     11.36851005	     40.53708666	     33.31214407	      0.00000000	      5.69042182	      0.00000000	     48.40235033	      0.00000000	      0.00000000	      0.00000000	     70.54536975	     32.10431426	      1.48613882	     37.10342827	      6.98494567	      5.72122119	      0.00000000	      6.59879103	     25.98658049	      7.82069183	     10.19778215	      3.17136847	      0.00000000	     14.26285159	     13.85581449	      6.90277886	      7.83917270	      4.87227672	      0.00000000	     11.66742028	      2.80698321	     19.13231649	      3.92833300	     15.30710908	     10.65814895	      0.00000000	      0.00000000	     11.04196065	      8.30400455	      0.00000000	      4.09434440	      8.36609247	     14.81567146	     11.36851005	     40.53708666	     33.31214407	      0.00000000	      5.69042182	      0.00000000	     27.99869103	      0.00000000	      0.00000000	      0.00000000	      0.00000000	      0.00000000	     25.44071269	     59.81884615	     10.43414375	      8.72463840	      1.89066197	      9.99327889	     21.86001343	      5.02292653	      6.31038219	      1.84871951	     65.05245114	     65.05245114	     25.11608328	     25.11608328	     41.61278416	     41.61278416	      8.89965924	     33.30468560	      1.96256995	     -1.60000159	      0.21781206	      3.81189131	     -8.89965924	    -33.30468560	     -1.96256995	      0.95630960	     -0.26235040	     -0.13713068	      3.38004664	     14.20951360	      0.14916918	      0.23101529	     -0.06257837	      1.36952433	     -3.38004664	    -14.20951360	     -0.14916918	     -0.24197565	      0.05040389	      0.03854102	     -8.62163819	   -733.28710151	    121.05536596	    -16.55330561	      0.50386128	      2.92791818	      8.62163819	    733.28710151	   -121.05536596	     65.31981690	      0.43073038	      6.20650732	    -71.47147800	   -700.92242913	   -152.59648819	     23.30152621	     -2.29510568	     -0.29670864	     71.47147800	    700.92242913	    152.59648819	    -79.49057496	      0.84932498	     33.25483592	    103.27997600	     97.27597442	      0.00000000	      0.00000000	      0.00000000	    -13.27524837	    -25.75829877	      0.00000000	      0.00000000	      0.00000000	      0.00000000	      0.00000000	      0.00000001	      0.00000000
      0.07037004	      0.00000000	     14.26913608	     14.17387477	      6.83538437	      7.76511061	      5.31676972	      0.00000000	    236.71472672	    338.85027253	    440.71565556	    137.89998592	     15.15145654	     10.55492991	      0.00000000	      0.00000000	     10.97572577	      4.39011765	      0.00000000	    120.76412850	      8.56001743	     14.70306823	     11.25842781	     40.24511308	     32.98053404	      0.00000000	      5.65401845	      0.00000000	     48.02064495	      0.00000000	      0.00000000	      0.00000000	     69.89927422	     32.04655641	      0.00000000	     36.55534554	      7.72688590	      6.30654482	      0.00000000	      5.70879381	     23.64945569	      5.02599213	     10.84134805	      3.43395842	      0.00000000	     14.26913608	     14.17387477	      6.83538437	      7.76511061	      5.31676972	      0.00000000	     11.54540335	      4.33640013	     18.94185143	      3.89013115	     15.15145654	     10.55492991	      0.00000000	      0.00000000	     10.97572577	      8.26538636	      0.00000000	      4.05393587	      8.56001743	     14.70306823	     11.25842781	     40.24511308	     32.98053404	      0.00000000	      5.65401845	      0.00000000	     27.95018288	      0.00000000	      0.00000000	      0.00000000	      0.00000000	      0.00000000	     28.33225602	     59.83835303	     10.59861927	      8.95422867	      4.16837362	     10.04631438	     21.94451982	      4.98481360	      6.38196351	      1.87777022	     64.41604756	     64.41604756	     24.86054112	     24.86054112	     41.36949147	     41.36949147	      8.09977036	     33.39729458	      2.29535173	     -1.74227365	      0.19698328	      3.47337510	     -8.09977036	    -33.39729458	     -2.29535173	      0.97090560	     -0.24196055	     -0.09697614	      3.34994707	     13.96274729	      0.26656225	      0.17768240	     -0.06298908	      1.35633492	     -3.34994707	    -13.96274729	     -0.26656225	     -0.23461734	      0.04996634	      0.04132117	    -17.81917104	   -754.80207501	    115.80542104	    -16.70097714	      0.68418086	      2.96220257	     17.81917104	    754.80207501	   -115.80542104	     63.51622367	      0.20444014	     10.03323277	    -58.10169720	   -676.57641010	   -152.95439906	     22.73660552	     -2.01616500	      0.37040685	     58.10169720	    676.57641010	    152.95439906	    -79.15209058	      0.57820774	     27.42038189	    104.79631241	     97.73442366	      0.00000000	      0.00000000	      0.00000000	    -12.26939982	    -25.79810596	      0.00000000	      0.00000000	      0.00000000	      0.00000000	      0.00000000	      0.00000001	      0.00000000
      0.07155034	      0.00000000	     14.25227357	     14.38836069	      6.76910199	      7.69215197	      5.68379923	      0.00000000	    236.27215080	    336.98601138	    439.82214965	    138.11862677	     14.99841060	     10.45341494	      0.00000000	      0.00000000	     10.90702342	      4.43441527	      0.00000000	    120.75414346	      8.68717113	     14.58710667	     11.14936652	     39.95814928	     32.65463093	      0.00000000	      5.61726841	      0.00000000	     47.80172450	      0.00000000	      0.00000000	      0.00000000	     68.27162093	     31.48991734	      0.00000000	     35.77001900	      8.46614356	      6.87320493	      0.00000000	      4.99318299	     21.49522102	      7.22679381	     11.58836945	      3.72283216	      0.00000000	     14.25227357	     14.38836069	      6.76910199	      7.69215197	      5.68379923	      0.00000000	     11.42544901	      5.62590051	     18.75456021	      3.85256094	     14.99841060	     10.45341494	      0.00000000	      0.00000000	     10.90702342	      8.22583197	      0.00000000	      4.01419864	      8.68717113	     14.58710667	     11.14936652	     39.95814928	     32.65463093	      0.00000000	      5.61726841	      0.00000000	     27.89285051	      0.00000000	      0.00000000	      0.00000000	      0.00000000	      0.00000000	     30.97519325	     59.84802047	     10.73816665	      9.16250511	      5.99692352	     10.09046728	     22.02009485	      4.94620013	      6.46500401	      1.91122577	     63.79018842	     63.79018842	     24.60884439	     24.60884439	     41.13042122	     41.13042122	      7.47871541	     33.45467882	      2.25822957	     -1.72687068	      0.18111604	      3.21032203	     -7.47871541	    -33.45467882	     -2.25822957	      0.96940909	     -0.22417202	     -0.06393515	      3.57174928	     14.07961411	      0.12629569	      0.23817848	     -0.06783397	      1.44771575	     -3.57174928	    -14.07961411	     -0.12629569	     -0.24119544	      0.05526302	      0.03903279	    -30.15435832	   -773.10193442	    118.63031318	    -17.13916651	      0.95130881	      2.86754474	     30.15435832	    773.10193442	   -118.63031318	     65.08587443	     -0.05279873	     15.17541603	    -48.69810064	   -655.27155329	   -146.37256815	     21.96138804	     -1.80496045	      0.87594044	     48.69810064	    655.27155329	    146.37256815	    -75.93468639	      0.41948028	     23.28338738	    106.87547866	     98.80923662	      0.00000000	      0.00000000	      0.00000000	    -11.30925951	    -25.87132882	      0.00000000	      0.00000000	      0.00000000	      0.00000000	      0.00000000	      0.00000001	      0.00000000
